<svg xmlns="http://www.w3.org/2000/svg" viewBox="0 0 492 492"><defs><style>.cls-1{fill:#293475;}</style></defs><title>Asset 396</title><g id="Layer_2" data-name="Layer 2"><g id="Layer_1-2" data-name="Layer 1"><path class="cls-1" d="M246,492A246,246,0,0,1,72.05,72.05,246,246,0,0,1,420,420,244.42,244.42,0,0,1,246,492Zm0-468C123.59,24,24,123.59,24,246s99.59,222,222,222,222-99.59,222-222S368.41,24,246,24Z"/><path class="cls-1" d="M246,421.94a175.93,175.93,0,1,1,124.41-51.53A174.78,174.78,0,0,1,246,421.94Zm0-334.72C158.45,87.22,87.22,158.45,87.22,246S158.45,404.78,246,404.78,404.78,333.55,404.78,246,333.55,87.22,246,87.22Z"/></g></g></svg>